<mxfile host="app.diagrams.net" agent="Mozilla/5.0 (Macintosh; Intel Mac OS X 10_15_7) AppleWebKit/537.36 (KHTML, like Gecko) Chrome/141.0.0.0 Safari/537.36" version="28.2.8">
  <diagram name="Page-1" id="pRxgDlW4TQZOo3kQ-ujd">
    <mxGraphModel dx="1302" dy="629" grid="1" gridSize="10" guides="1" tooltips="1" connect="1" arrows="1" fold="1" page="1" pageScale="1" pageWidth="850" pageHeight="1100" math="0" shadow="0">
      <root>
        <mxCell id="0" />
        <mxCell id="1" parent="0" />
        <mxCell id="ZZu6QUCnzRNr8NDXkCBf-1" value="Calculator UML | Maizie Robson | 28 Oct 2025" style="text;html=1;whiteSpace=wrap;strokeColor=none;fillColor=none;align=center;verticalAlign=middle;rounded=0;fontSize=20;labelBackgroundColor=none;fontColor=#095C86;" vertex="1" parent="1">
          <mxGeometry x="200" y="30" width="420" height="50" as="geometry" />
        </mxCell>
        <mxCell id="ZZu6QUCnzRNr8NDXkCBf-2" value="Calculator" style="swimlane;fontStyle=1;align=center;verticalAlign=top;childLayout=stackLayout;horizontal=1;startSize=26;horizontalStack=0;resizeParent=1;resizeParentMax=0;resizeLast=0;collapsible=1;marginBottom=0;whiteSpace=wrap;html=1;labelBackgroundColor=none;fillColor=#F694C1;strokeColor=#AF45ED;fontColor=#095C86;rounded=0;" vertex="1" parent="1">
          <mxGeometry x="140" y="130" width="160" height="254" as="geometry" />
        </mxCell>
        <mxCell id="ZZu6QUCnzRNr8NDXkCBf-3" value="+ numButtons: Button[]&lt;div&gt;+ buttons: Button[]&lt;/div&gt;&lt;div&gt;+ l,r,result: float&lt;/div&gt;" style="text;strokeColor=none;fillColor=none;align=left;verticalAlign=top;spacingLeft=4;spacingRight=4;overflow=hidden;rotatable=0;points=[[0,0.5],[1,0.5]];portConstraint=eastwest;whiteSpace=wrap;html=1;labelBackgroundColor=none;fontColor=#095C86;rounded=0;" vertex="1" parent="ZZu6QUCnzRNr8NDXkCBf-2">
          <mxGeometry y="26" width="160" height="74" as="geometry" />
        </mxCell>
        <mxCell id="ZZu6QUCnzRNr8NDXkCBf-4" value="" style="line;strokeWidth=1;fillColor=none;align=left;verticalAlign=middle;spacingTop=-1;spacingLeft=3;spacingRight=3;rotatable=0;labelPosition=right;points=[];portConstraint=eastwest;strokeColor=#AF45ED;labelBackgroundColor=none;fontColor=#095C86;rounded=0;" vertex="1" parent="ZZu6QUCnzRNr8NDXkCBf-2">
          <mxGeometry y="100" width="160" height="8" as="geometry" />
        </mxCell>
        <mxCell id="ZZu6QUCnzRNr8NDXkCBf-5" value="+ method(type): type" style="text;strokeColor=none;fillColor=none;align=left;verticalAlign=top;spacingLeft=4;spacingRight=4;overflow=hidden;rotatable=0;points=[[0,0.5],[1,0.5]];portConstraint=eastwest;whiteSpace=wrap;html=1;labelBackgroundColor=none;fontColor=#095C86;rounded=0;" vertex="1" parent="ZZu6QUCnzRNr8NDXkCBf-2">
          <mxGeometry y="108" width="160" height="146" as="geometry" />
        </mxCell>
        <mxCell id="ZZu6QUCnzRNr8NDXkCBf-6" value="Button" style="swimlane;fontStyle=1;align=center;verticalAlign=top;childLayout=stackLayout;horizontal=1;startSize=26;horizontalStack=0;resizeParent=1;resizeParentMax=0;resizeLast=0;collapsible=1;marginBottom=0;whiteSpace=wrap;html=1;labelBackgroundColor=none;fillColor=#F694C1;strokeColor=#AF45ED;fontColor=#095C86;rounded=0;" vertex="1" parent="1">
          <mxGeometry x="470" y="160" width="200" height="220" as="geometry" />
        </mxCell>
        <mxCell id="ZZu6QUCnzRNr8NDXkCBf-7" value="+ x,y,w,h,b: int&lt;div&gt;+ c1,c2: color&lt;/div&gt;&lt;div&gt;+ val: char&lt;/div&gt;&lt;div&gt;+ over: boolean&lt;/div&gt;" style="text;strokeColor=none;fillColor=none;align=left;verticalAlign=top;spacingLeft=4;spacingRight=4;overflow=hidden;rotatable=0;points=[[0,0.5],[1,0.5]];portConstraint=eastwest;whiteSpace=wrap;html=1;labelBackgroundColor=none;fontColor=#095C86;rounded=0;" vertex="1" parent="ZZu6QUCnzRNr8NDXkCBf-6">
          <mxGeometry y="26" width="200" height="84" as="geometry" />
        </mxCell>
        <mxCell id="ZZu6QUCnzRNr8NDXkCBf-8" value="" style="line;strokeWidth=1;fillColor=none;align=left;verticalAlign=middle;spacingTop=-1;spacingLeft=3;spacingRight=3;rotatable=0;labelPosition=right;points=[];portConstraint=eastwest;strokeColor=#AF45ED;labelBackgroundColor=none;fontColor=#095C86;rounded=0;" vertex="1" parent="ZZu6QUCnzRNr8NDXkCBf-6">
          <mxGeometry y="110" width="200" height="8" as="geometry" />
        </mxCell>
        <mxCell id="ZZu6QUCnzRNr8NDXkCBf-9" value="+ Button(x,y,w,h,b,val,c1,c2,): void&lt;div&gt;+display(): void&lt;/div&gt;&lt;div&gt;+ hover(Temp X,Temp Y): void&lt;/div&gt;&lt;div&gt;&lt;br&gt;&lt;/div&gt;" style="text;strokeColor=none;fillColor=none;align=left;verticalAlign=top;spacingLeft=4;spacingRight=4;overflow=hidden;rotatable=0;points=[[0,0.5],[1,0.5]];portConstraint=eastwest;whiteSpace=wrap;html=1;labelBackgroundColor=none;fontColor=#095C86;rounded=0;" vertex="1" parent="ZZu6QUCnzRNr8NDXkCBf-6">
          <mxGeometry y="118" width="200" height="102" as="geometry" />
        </mxCell>
        <mxCell id="ZZu6QUCnzRNr8NDXkCBf-18" style="edgeStyle=orthogonalEdgeStyle;rounded=0;orthogonalLoop=1;jettySize=auto;html=1;exitX=0;exitY=0.5;exitDx=0;exitDy=0;entryX=1.006;entryY=0.313;entryDx=0;entryDy=0;entryPerimeter=0;strokeColor=#60E696;fontColor=#095C86;fillColor=#F694C1;" edge="1" parent="1" source="ZZu6QUCnzRNr8NDXkCBf-7" target="ZZu6QUCnzRNr8NDXkCBf-3">
          <mxGeometry relative="1" as="geometry" />
        </mxCell>
      </root>
    </mxGraphModel>
  </diagram>
</mxfile>
